<?xml version="1.0" encoding="UTF-8" standalone="no"?>
<svg width="276px" height="276px" viewBox="0 0 276 276" version="1.1" xmlns="http://www.w3.org/2000/svg" xmlns:xlink="http://www.w3.org/1999/xlink">
    <!-- Generator: Sketch 3.6.1 (26313) - http://www.bohemiancoding.com/sketch -->
    <title>drag-in-files</title>
    <desc>Created with Sketch.</desc>
    <defs></defs>
    <g id="Page-1" stroke="none" stroke-width="1" fill="none" fill-rule="evenodd">
        <g id="drag-in-files">
            <rect id="Rectangle-1" fill="#6699CD" x="0" y="0" width="276" height="276"></rect>
            <g id="Group-Copy" transform="translate(199.000000, 124.000000) scale(-1, 1) translate(-199.000000, -124.000000) translate(158.000000, 55.000000)"></g>
            <text id="Drag-in-files-to-add" font-family="BentonSans-Bold, BentonSans" font-size="16" font-weight="bold" fill="#FFFFFF">
                <tspan x="41" y="34">Drag in files to add them</tspan>
            </text>
            <g id="Group-3" transform="translate(139.000000, 55.000000)">
                <path d="M68.6201371,79.409765 C68.6201371,79.409765 68.3266854,83.8868253 64.8253781,87.0821899 C63.2589976,88.5117007 61.0505966,89.6846928 57.9392289,90.0855462 C50.231221,90.0914056 6.73341831,90.1783197 6.73341831,90.1783197 C6.73341831,90.1783197 3.05041418,89.2373602 0.45656283,84.0496575 C0.456562816,83.0496575 -1.55417935,101.062353 2.8637894,115.431005 C7.28175815,129.799658 22.4565628,133.049658 22.4565628,133.049658 C22.4565628,133.049658 40.4565598,139.049658 60.4565628,133.049658 C67.4565628,129.049658 75.4565598,125.049658 79.4565628,107.049658 C80.4565628,101.049658 80.4565598,100.049658 80.4565628,96.0496575 C80.4565659,92.0496575 80.4565628,16.0496575 80.4565628,16.0496575 C80.4565628,16.0496575 80,3 73.4565659,1.04965759 C69.6201401,0.0496576156 59.4565636,-1.95034286 58.4565628,5.04965754 C57.456562,12.049658 60.456562,12.049658 62.4565628,13.0496575 C66.4565659,14.0496578 68.6201401,13.049658 68.6201401,21.049658 C68.6201401,29.049658 68.6201371,79.409765 68.6201371,79.409765 Z" id="Path-4611-Copy" stroke="#222222" stroke-width="3" stroke-linecap="round" stroke-linejoin="bevel" fill="#F3B9BA"></path>
                <path d="M35,136 L22.5,167.5 L35,203.5" id="Path-4625" stroke="#222222" stroke-width="3" stroke-linecap="round"></path>
                <path d="M55.8166337,7.55483749 L48.4522119,10.0722674 C48.1590925,10.1726383 47.9736746,10.4591516 48.0030478,10.7651309 C48.0330328,11.0717184 48.2704657,11.3180834 48.5770478,11.3600567 L59.3967642,12.8619706 C59.4273612,12.8656205 59.4585702,12.8680537 59.4891672,12.8680537 C59.7553612,12.8680537 60.0007493,12.7098935 60.1066149,12.4598786 C60.2234955,12.1812733 60.1378239,11.859478 59.8967194,11.6751605 C58.0884358,10.2936917 58.3283164,7.7211546 58.3301522,7.69743056 C58.3398473,7.60780125 58.3310143,7.5186491 58.3057063,7.4348501 C58.3405186,7.32013905 58.344089,7.19635099 58.3133239,7.07665163 C57.7846075,5.03090979 59.5751448,3.14636973 59.5922791,3.12933709 C59.8015627,2.91399585 59.8407269,2.58611751 59.6883537,2.32819466 C59.5359806,2.07027181 59.2281746,1.94435193 58.937503,2.02343205 L48.4959657,4.8192184 C48.195503,4.89951513 47.990503,5.17447062 48.000906,5.48349139 C48.011309,5.79251217 48.2340552,6.05347656 48.5388015,6.11430742 L55.8166337,7.55483749 Z" id="Combined-Shape-Copy" fill="#222222"></path>
                <g id="Group-2-Copy" transform="translate(7.000000, 95.000000)" stroke="#222222" stroke-width="3" stroke-linecap="round">
                    <path d="M65,3 C65,3 69.7084961,32 34,32 C6,32 4.00000007,18.5000009 1,10.5 C-2.00000007,2.49999906 3.50000015,-0.499999754 5.00000018,3.00000007 C6.5000002,6.4999999 7.0000002,11.5000004 7.0000002,11.5000004" id="Path-4613" stroke-linejoin="bevel"></path>
                    <path d="M5,2.50000006 C5,2.50000006 6.5,-0.99999999 9.5,1.49999994 C10,1.99999994 12,8.49999985 12,11" id="Path-4614" stroke-linejoin="round"></path>
                    <path d="M10,1.90027707 C10,1.90027707 13,-1.00000002 15,1.90027702 C15.5,2.40027702 16.5,6.99999983 17,10.9999998" id="Path-4614-Copy" stroke-linejoin="round"></path>
                </g>
                <circle id="Oval-1" fill="#222222" cx="64.5" cy="5.5" r="1.5"></circle>
                <path d="M45.5,136 L45.5,203.501852" id="Path-4624" stroke="#222222" stroke-width="3" stroke-linecap="round"></path>
            </g>
            <g id="Group" transform="translate(30.000000, 96.000000)">
                <path d="M75.4562993,4.90513925 L144.66532,4.90513925 L144.66532,73.868772 L75.4562993,73.868772 L75.4562993,4.90513925 Z" id="Fill-10" fill="#E96C64"></path>
                <path d="M75.4562993,4.90513925 L144.66532,4.90513925 L144.66532,73.868772 L75.4562993,73.868772 L75.4562993,4.90513925 L75.4562993,4.90513925 Z" id="Stroke-12" stroke="#222222" stroke-width="3"></path>
                <path d="M56.1537835,0.320851527 C87.085815,0.320851527 112.161083,25.3072128 112.161083,56.1295716 C112.161083,86.9519305 87.085815,111.938292 56.1537835,111.938292 C25.2217519,111.938292 0.146483739,86.9519305 0.146483739,56.1295716 C0.146483739,25.3072128 25.2217519,0.320851527 56.1537835,0.320851527" id="Fill-14" fill="#FFFFFF"></path>
                <path d="M56.1537835,0.320851527 C87.085815,0.320851527 112.161083,25.3072128 112.161083,56.1295716 C112.161083,86.9519305 87.085815,111.938292 56.1537835,111.938292 C25.2217519,111.938292 0.146483739,86.9519305 0.146483739,56.1295716 C0.146483739,25.3072128 25.2217519,0.320851527 56.1537835,0.320851527 L56.1537835,0.320851527 Z" id="Stroke-16" stroke="#222222" stroke-width="3"></path>
                <path d="M98.3592844,109.546489 C129.263312,109.546489 154.366584,84.5322238 154.366584,53.7377693 L42.3519846,53.7377693 C42.3519846,84.6318823 67.3552434,109.546489 98.3592844,109.546489" id="Fill-18" fill="#6498CF"></path>
                <path d="M98.3592844,109.546489 C129.263312,109.546489 154.366584,84.5322238 154.366584,53.7377693 L42.3519846,53.7377693 C42.3519846,84.6318823 67.3552434,109.546489 98.3592844,109.546489 L98.3592844,109.546489 Z" id="Stroke-20" stroke="#222222" stroke-width="3"></path>
            </g>
        </g>
    </g>
</svg>